<svg aria-hidden="true" style="position: absolute; width: 0; height: 0; overflow: hidden;" version="1.1" xmlns="http://www.w3.org/2000/svg" xmlns:xlink="http://www.w3.org/1999/xlink">
<defs>
<symbol id="icon-male-white" viewBox="0 0 19 32">
<path fill="none" stroke="#fff" style="stroke: var(--color1, #fff)" stroke-linejoin="round" stroke-linecap="round" stroke-miterlimit="4" stroke-width="2.4" d="M9.6 14.4c-4.418 0-8 3.582-8 8s3.582 8 8 8c4.418 0 8-3.582 8-8s-3.582-8-8-8zM9.6 14.4v-12.8M9.6 1.6l6.4 6.4M9.6 1.6l-6.4 6.4"></path>
</symbol>
<symbol id="icon-femali-male-white" viewBox="0 0 32 32">
<path fill="#fff" style="fill: var(--color1, #fff)" d="M10.259 8.436c-1.276-0.498-2.68-0.561-3.996-0.18s-2.468 1.187-3.279 2.291c-0.811 1.104-1.235 2.444-1.206 3.813s0.509 2.691 1.365 3.759c0.857 1.069 2.042 1.825 3.372 2.151s2.731 0.204 3.985-0.348c1.254-0.551 2.29-1.501 2.949-2.702s0.903-2.585 0.694-3.939c-0.018-0.115-0.013-0.233 0.015-0.346s0.078-0.22 0.147-0.314c0.069-0.094 0.156-0.174 0.256-0.234s0.21-0.101 0.326-0.119c0.115-0.018 0.233-0.013 0.346 0.015s0.22 0.078 0.314 0.147c0.094 0.069 0.174 0.156 0.234 0.256s0.101 0.21 0.119 0.326c0.268 1.74-0.046 3.52-0.893 5.064s-2.18 2.765-3.792 3.473c-1.612 0.709-3.413 0.865-5.123 0.446s-3.234-1.391-4.335-2.765c-1.101-1.374-1.718-3.073-1.755-4.833s0.508-3.484 1.551-4.903c1.043-1.419 2.524-2.454 4.215-2.945s3.497-0.41 5.137 0.231c0.11 0.041 0.211 0.104 0.297 0.185s0.155 0.177 0.203 0.285c0.048 0.107 0.074 0.223 0.077 0.341s-0.018 0.235-0.061 0.344c-0.043 0.11-0.107 0.21-0.189 0.294s-0.179 0.152-0.288 0.199c-0.108 0.047-0.224 0.071-0.342 0.072s-0.234-0.020-0.343-0.064z"></path>
<path fill="#fff" style="fill: var(--color1, #fff)" d="M7.108 29.334v-7.108c0-0.236 0.094-0.462 0.26-0.628s0.393-0.26 0.628-0.26c0.236 0 0.462 0.094 0.628 0.26s0.26 0.393 0.26 0.628v7.108c0 0.236-0.094 0.462-0.26 0.628s-0.393 0.26-0.628 0.26c-0.236 0-0.462-0.094-0.628-0.26s-0.26-0.393-0.26-0.628z"></path>
<path fill="#fff" style="fill: var(--color1, #fff)" d="M4.443 24.891c0-0.236 0.094-0.462 0.26-0.628s0.393-0.26 0.628-0.26h5.331c0.236 0 0.462 0.094 0.628 0.26s0.26 0.393 0.26 0.628c0 0.236-0.094 0.462-0.26 0.628s-0.393 0.26-0.628 0.26h-5.331c-0.236 0-0.462-0.093-0.628-0.26s-0.26-0.393-0.26-0.628zM20.349 8.243c-0.985-0.278-2.023-0.309-3.022-0.090s-1.929 0.681-2.707 1.346c-0.778 0.665-1.38 1.511-1.753 2.464s-0.505 1.983-0.384 2.999c0.014 0.116 0.006 0.234-0.026 0.347s-0.085 0.218-0.157 0.31c-0.072 0.092-0.162 0.169-0.264 0.227s-0.214 0.094-0.331 0.108c-0.116 0.014-0.234 0.005-0.347-0.027s-0.218-0.086-0.31-0.158c-0.092-0.073-0.168-0.163-0.225-0.265s-0.093-0.215-0.106-0.331c-0.208-1.749 0.168-3.517 1.068-5.030s2.275-2.688 3.91-3.34c1.636-0.652 3.441-0.747 5.135-0.269s3.184 1.503 4.237 2.914c1.053 1.411 1.611 3.131 1.587 4.891s-0.629 3.464-1.72 4.846c-1.091 1.382-2.608 2.365-4.315 2.797s-3.509 0.288-5.126-0.409c-0.107-0.046-0.204-0.113-0.286-0.197s-0.145-0.183-0.189-0.291c-0.087-0.219-0.084-0.463 0.009-0.68s0.269-0.387 0.488-0.474c0.219-0.087 0.464-0.084 0.68 0.009 0.782 0.337 1.624 0.51 2.476 0.508s1.693-0.179 2.473-0.519c0.78-0.34 1.482-0.837 2.063-1.46s1.027-1.358 1.311-2.16c0.285-0.802 0.402-1.654 0.344-2.503s-0.289-1.678-0.68-2.434-0.933-1.424-1.593-1.962c-0.659-0.538-1.422-0.935-2.241-1.167z"></path>
<path fill="#fff" style="fill: var(--color1, #fff)" d="M23.807 9.97c-0.167-0.167-0.26-0.393-0.26-0.628s0.094-0.462 0.26-0.628l6.664-6.664c0.082-0.085 0.18-0.153 0.289-0.199s0.225-0.071 0.343-0.072c0.118-0.001 0.235 0.021 0.344 0.066s0.208 0.111 0.292 0.194c0.084 0.083 0.149 0.183 0.194 0.292s0.067 0.226 0.066 0.344c-0.001 0.118-0.026 0.235-0.072 0.343s-0.114 0.206-0.199 0.288l-6.664 6.664c-0.167 0.167-0.393 0.26-0.628 0.26s-0.462-0.094-0.628-0.26z"></path>
<path fill="#fff" style="fill: var(--color1, #fff)" d="M31.031 8.009c-0.117-0.002-0.232-0.026-0.339-0.072s-0.204-0.113-0.286-0.196c-0.081-0.084-0.146-0.182-0.189-0.291s-0.065-0.224-0.063-0.341l0.044-3.531-3.531 0.044c-0.236 0.003-0.463-0.088-0.632-0.252s-0.265-0.389-0.268-0.625 0.088-0.463 0.252-0.632c0.164-0.169 0.389-0.265 0.625-0.268l5.354-0.068-0.068 5.354c-0.002 0.117-0.026 0.232-0.072 0.339s-0.113 0.204-0.196 0.286c-0.084 0.081-0.182 0.146-0.291 0.189s-0.224 0.065-0.341 0.063z"></path>
</symbol>
<symbol id="icon-femali-white" viewBox="0 0 32 32">
<path fill="none" stroke="#fff" style="stroke: var(--color1, #fff)" stroke-linejoin="round" stroke-linecap="round" stroke-miterlimit="4" stroke-width="2.4" d="M16 17.6c4.418 0 8-3.582 8-8s-3.582-8-8-8c-4.418 0-8 3.582-8 8s3.582 8 8 8zM16 17.6v12.8M11.2 25.6h9.6"></path>
</symbol>
<symbol id="icon-femali-male-yellow" viewBox="0 0 32 32">
<path fill="#f6b83d" style="fill: var(--color2, #f6b83d)" d="M10.259 8.436c-1.276-0.498-2.68-0.561-3.996-0.18s-2.468 1.187-3.279 2.291c-0.811 1.104-1.235 2.444-1.206 3.813s0.509 2.691 1.365 3.759c0.857 1.069 2.042 1.825 3.372 2.151s2.731 0.204 3.985-0.348c1.254-0.551 2.29-1.501 2.949-2.702s0.903-2.585 0.694-3.939c-0.018-0.115-0.013-0.233 0.015-0.346s0.078-0.22 0.147-0.314c0.069-0.094 0.156-0.174 0.256-0.234s0.21-0.101 0.326-0.119c0.115-0.018 0.233-0.013 0.346 0.015s0.22 0.078 0.314 0.147c0.094 0.069 0.174 0.156 0.234 0.256s0.101 0.21 0.119 0.326c0.268 1.74-0.046 3.52-0.893 5.064s-2.18 2.765-3.792 3.473c-1.612 0.709-3.413 0.865-5.123 0.446s-3.234-1.391-4.335-2.765c-1.101-1.374-1.718-3.073-1.755-4.833s0.508-3.484 1.551-4.903c1.043-1.419 2.524-2.454 4.215-2.945s3.497-0.41 5.137 0.231c0.11 0.041 0.211 0.104 0.297 0.185s0.155 0.177 0.203 0.285c0.048 0.107 0.074 0.223 0.077 0.341s-0.018 0.235-0.061 0.344c-0.043 0.11-0.107 0.21-0.189 0.294s-0.179 0.152-0.288 0.199c-0.108 0.047-0.224 0.071-0.342 0.072s-0.234-0.020-0.343-0.064z"></path>
<path fill="#f6b83d" style="fill: var(--color2, #f6b83d)" d="M7.108 29.334v-7.108c0-0.236 0.094-0.462 0.26-0.628s0.393-0.26 0.628-0.26c0.236 0 0.462 0.094 0.628 0.26s0.26 0.393 0.26 0.628v7.108c0 0.236-0.094 0.462-0.26 0.628s-0.393 0.26-0.628 0.26c-0.236 0-0.462-0.094-0.628-0.26s-0.26-0.393-0.26-0.628z"></path>
<path fill="#f6b83d" style="fill: var(--color2, #f6b83d)" d="M4.443 24.891c0-0.236 0.094-0.462 0.26-0.628s0.393-0.26 0.628-0.26h5.331c0.236 0 0.462 0.094 0.628 0.26s0.26 0.393 0.26 0.628c0 0.236-0.094 0.462-0.26 0.628s-0.393 0.26-0.628 0.26h-5.331c-0.236 0-0.462-0.093-0.628-0.26s-0.26-0.393-0.26-0.628zM20.349 8.243c-0.985-0.278-2.023-0.309-3.022-0.090s-1.929 0.681-2.707 1.346c-0.778 0.665-1.38 1.511-1.753 2.464s-0.505 1.983-0.384 2.999c0.014 0.116 0.006 0.234-0.026 0.347s-0.085 0.218-0.157 0.31c-0.072 0.092-0.162 0.169-0.264 0.227s-0.214 0.094-0.331 0.108c-0.116 0.014-0.234 0.005-0.347-0.027s-0.218-0.086-0.31-0.158c-0.092-0.073-0.168-0.163-0.225-0.265s-0.093-0.215-0.106-0.331c-0.208-1.749 0.168-3.517 1.068-5.030s2.275-2.688 3.91-3.34c1.636-0.652 3.441-0.747 5.135-0.269s3.184 1.503 4.237 2.914c1.053 1.411 1.611 3.131 1.587 4.891s-0.629 3.464-1.72 4.846c-1.091 1.382-2.608 2.365-4.315 2.797s-3.509 0.288-5.126-0.409c-0.107-0.046-0.204-0.113-0.286-0.197s-0.145-0.183-0.189-0.291c-0.087-0.219-0.084-0.463 0.009-0.68s0.269-0.387 0.488-0.474c0.219-0.087 0.464-0.084 0.68 0.010 0.782 0.337 1.624 0.509 2.476 0.508s1.693-0.179 2.473-0.519c0.78-0.34 1.482-0.837 2.063-1.46s1.027-1.358 1.311-2.16c0.285-0.802 0.402-1.654 0.344-2.503s-0.289-1.678-0.68-2.434-0.933-1.424-1.593-1.962c-0.659-0.538-1.422-0.935-2.241-1.167z"></path>
<path fill="#f6b83d" style="fill: var(--color2, #f6b83d)" d="M23.807 9.97c-0.167-0.167-0.26-0.393-0.26-0.628s0.094-0.462 0.26-0.628l6.664-6.664c0.082-0.085 0.18-0.153 0.289-0.199s0.225-0.071 0.343-0.072c0.118-0.001 0.235 0.021 0.344 0.066s0.208 0.111 0.292 0.194c0.084 0.083 0.149 0.183 0.194 0.292s0.067 0.226 0.066 0.344c-0.001 0.118-0.026 0.235-0.072 0.343s-0.114 0.206-0.199 0.288l-6.664 6.664c-0.167 0.167-0.393 0.26-0.628 0.26s-0.462-0.094-0.628-0.26z"></path>
<path fill="#f6b83d" style="fill: var(--color2, #f6b83d)" d="M31.031 8.009c-0.117-0.002-0.232-0.026-0.339-0.072s-0.204-0.113-0.286-0.196c-0.081-0.084-0.146-0.182-0.189-0.291s-0.065-0.224-0.063-0.341l0.044-3.531-3.531 0.044c-0.236 0.003-0.463-0.088-0.632-0.252s-0.265-0.389-0.268-0.625 0.088-0.463 0.252-0.632c0.164-0.169 0.389-0.265 0.625-0.268l5.354-0.068-0.068 5.354c-0.002 0.117-0.026 0.232-0.072 0.339s-0.113 0.204-0.196 0.286c-0.084 0.081-0.182 0.146-0.291 0.189s-0.224 0.065-0.341 0.063z"></path>
</symbol>
<symbol id="icon-male-blue" viewBox="0 0 32 32">
<path fill="none" stroke="#54adff" style="stroke: var(--color3, #54adff)" stroke-linejoin="round" stroke-linecap="round" stroke-miterlimit="4" stroke-width="2.4" d="M16 14.4c-4.418 0-8 3.582-8 8s3.582 8 8 8c4.418 0 8-3.582 8-8s-3.582-8-8-8zM16 14.4v-12.8M16 1.6l6.4 6.4M16 1.6l-6.4 6.4"></path>
</symbol>
<symbol id="icon-femali-red" viewBox="0 0 32 32">
<path fill="none" stroke="#f43f5e" style="stroke: var(--color4, #f43f5e)" stroke-linejoin="round" stroke-linecap="round" stroke-miterlimit="4" stroke-width="2.4" d="M16 17.6c4.418 0 8-3.582 8-8s-3.582-8-8-8c-4.418 0-8 3.582-8 8s3.582 8 8 8zM16 17.6v12.8M11.2 25.6h9.6"></path>
</symbol>
<symbol id="icon-calendar" viewBox="0 0 32 32" fill="none">
<path d="M15.8333 3.33333H4.16667C3.24619 3.33333 2.5 4.07952 2.5 4.99999V16.6667C2.5 17.5871 3.24619 18.3333 4.16667 18.3333H15.8333C16.7538 18.3333 17.5 17.5871 17.5 16.6667V4.99999C17.5 4.07952 16.7538 3.33333 15.8333 3.33333Z" stroke="#262626" stroke-width="1.8" stroke-linecap="round" stroke-linejoin="round"/>
<path d="M13.333 1.66667V5" stroke="#262626" stroke-width="1.8" stroke-linecap="round" stroke-linejoin="round"/>
<path d="M6.66699 1.66667V5" stroke="#262626" stroke-width="1.8" stroke-linecap="round" stroke-linejoin="round"/>
<path d="M2.5 8.33333H17.5" stroke="#262626" stroke-width="1.8" stroke-linecap="round" stroke-linejoin="round"/>
</symbol>
<symbol id="icon-star" viewBox="0 0 32 32">
<path fill="#ffc531" style="fill: var(--color5, #ffc531); stroke: var(--color5, #ffc531)" stroke="#ffc531" stroke-linejoin="miter" stroke-linecap="butt" stroke-miterlimit="4" stroke-width="2.4" d="M19.6 9.395c0.279 0.528 0.758 0.917 1.324 1.084l0.246 0.057 7.6 1.313-5.375 5.535c-0.416 0.428-0.637 1.003-0.621 1.592l0.022 0.254 1.098 7.635-6.922-3.402-0.234-0.1c-0.476-0.169-0.996-0.169-1.473 0l-0.234 0.1-6.924 3.402 1.1-7.635c0.085-0.591-0.074-1.187-0.434-1.654l-0.166-0.191-5.377-5.535 7.602-1.313c0.588-0.102 1.106-0.437 1.439-0.924l0.131-0.217 3.6-6.822 3.6 6.822z"></path>
</symbol>
<symbol id="icon-user" viewBox="0 0 32 32">
<path fill="#f6b83d" style="fill: var(--color2, #f6b83d); stroke: var(--color2, #f6b83d)" stroke="#f6b83d" stroke-linejoin="round" stroke-linecap="round" stroke-miterlimit="4" stroke-width="2.6667" d="M16 20c-4.227 0-7.986 2.041-10.379 5.208-0.515 0.682-0.773 1.022-0.764 1.483 0.006 0.356 0.23 0.805 0.51 1.025 0.362 0.284 0.865 0.284 1.869 0.284h17.527c1.005 0 1.507 0 1.869-0.284 0.28-0.22 0.503-0.669 0.51-1.025 0.008-0.461-0.249-0.801-0.764-1.483-2.393-3.167-6.152-5.208-10.379-5.208z"></path>
<path fill="#f6b83d" style="fill: var(--color2, #f6b83d); stroke: var(--color2, #f6b83d)" stroke="#f6b83d" stroke-linejoin="round" stroke-linecap="round" stroke-miterlimit="4" stroke-width="2.6667" d="M16 16c3.314 0 6-2.686 6-6s-2.686-6-6-6c-3.314 0-6 2.686-6 6s2.686 6 6 6z"></path>
</symbol>
<symbol id="icon-check-mark" viewBox="0 0 32 32" fill="none">
<path d="M4.5 6.75L9 11.25L13.5 6.75" stroke="#262626" stroke-width="2" stroke-linecap="round" stroke-linejoin="round"/>
</symbol>
<symbol id="icon-search" viewBox="0 0 18 18" fill="none">
<path d="M8.25 14.25C11.5637 14.25 14.25 11.5637 14.25 8.25C14.25 4.93629 11.5637 2.25 8.25 2.25C4.93629 2.25 2.25 4.93629 2.25 8.25C2.25 11.5637 4.93629 14.25 8.25 14.25Z" stroke="#262626" stroke-width="2" stroke-linecap="round" stroke-linejoin="round"/>
<path d="M15.7508 15.75L12.4883 12.4875" stroke="#262626" stroke-width="2" stroke-linecap="round" stroke-linejoin="round"/>
<symbol id="icon-check-mark-green" viewBox="0 0 32 32">
<path fill="none" stroke="#08aa83" style="stroke: var(--color6, #08aa83)" stroke-linejoin="round" stroke-linecap="round" stroke-miterlimit="4" stroke-width="2.6667" d="M29.038 6.963l-17.926 17.926-8.148-8.148"></path>
</symbol>
<symbol id="icon-cross-red" viewBox="0 0 32 32">
<path fill="none" stroke="#ef2447" style="stroke: var(--color7, #ef2447)" stroke-linejoin="round" stroke-linecap="round" stroke-miterlimit="4" stroke-width="4" d="M28.833 3.167l-25.667 25.667M3.166 3.167l25.666 25.667"></path>
</symbol>
<symbol id="icon-eye" viewBox="0 0 32 32">
<path fill="none" stroke="#f6b83d" style="stroke: var(--color2, #f6b83d)" stroke-linejoin="round" stroke-linecap="round" stroke-miterlimit="4" stroke-width="2.9091" d="M1.332 16c0 0 5.333-10.667 14.667-10.667s14.667 10.667 14.667 10.667-5.333 10.667-14.667 10.667c-9.333 0-14.667-10.667-14.667-10.667z"></path>
<path fill="none" stroke="#f6b83d" style="stroke: var(--color2, #f6b83d)" stroke-linejoin="round" stroke-linecap="round" stroke-miterlimit="4" stroke-width="2.9091" d="M16 20c2.209 0 4-1.791 4-4s-1.791-4-4-4c-2.209 0-4 1.791-4 4s1.791 4 4 4z"></path>
</symbol>
<symbol id="icon-eye-off" viewBox="0 0 32 32">
<path fill="none" stroke="#f6b83d" style="stroke: var(--color2, #f6b83d)" stroke-linejoin="round" stroke-linecap="round" stroke-miterlimit="4" stroke-width="2.9091" d="M23.922 23.92c-2.279 1.737-5.055 2.7-7.92 2.747-9.333 0-14.667-10.667-14.667-10.667 1.659-3.091 3.959-5.791 6.747-7.92M13.202 5.653c0.918-0.215 1.857-0.322 2.8-0.32 9.333 0 14.667 10.667 14.667 10.667-0.809 1.514-1.775 2.94-2.88 4.253M18.828 18.827c-0.366 0.393-0.808 0.708-1.298 0.927s-1.020 0.336-1.557 0.346c-0.537 0.009-1.071-0.089-1.569-0.291s-0.951-0.5-1.33-0.88c-0.38-0.38-0.679-0.832-0.88-1.33s-0.3-1.032-0.29-1.569c0.009-0.537 0.127-1.067 0.346-1.557s0.534-0.932 0.927-1.298"></path>
<path fill="none" stroke="#f6b83d" style="stroke: var(--color2, #f6b83d)" stroke-linejoin="round" stroke-linecap="round" stroke-miterlimit="4" stroke-width="2.9091" d="M1.335 1.333l29.333 29.333"></path>
</symbol>
<symbol id="icon-close" viewBox="0 0 32 32">
<path d="M27 9L9 27" stroke="currentColor" stroke-width="3" stroke-linecap="round" stroke-linejoin="round"/>
<path d="M9 9L27 27" stroke="currentColor" stroke-width="3" stroke-linecap="round" stroke-linejoin="round"/>
</symbol>
<symbol id="icon-menu" viewBox="0 0 32 32">
<path d="M4.5 18H31.5" stroke="currentColor" stroke-width="3" stroke-linecap="round" stroke-linejoin="round"/>
<path d="M4.5 9H31.5" stroke="currentColor" stroke-width="3" stroke-linecap="round" stroke-linejoin="round"/>
<path d="M4.5 27H31.5" stroke="currentColor" stroke-width="3" stroke-linecap="round" stroke-linejoin="round"/>
</symbol>
<symbol id="icon-heart-circle" viewBox="0 0 32 32">
<path  d="M15.991 7.561c-2.559-3.022-6.827-3.834-10.033-1.068s-3.658 7.393-1.14 10.665c1.613 2.096 5.743 5.983 8.505 8.506 0.918 0.839 1.376 1.258 1.926 1.426 0.473 0.145 1.012 0.145 1.485 0 0.55-0.168 1.008-0.588 1.926-1.426 2.761-2.524 6.892-6.41 8.505-8.506 2.518-3.272 2.122-7.928-1.14-10.665s-7.474-1.954-10.033 1.068z"></path>
</symbol>
<symbol id="icon-pencil" viewBox="0 0 32 32">
<path fill="none" stroke="#f6b83d" style="stroke: var(--color1, #f6b83d)" stroke-linejoin="round" stroke-linecap="round" stroke-miterlimit="4" stroke-width="2.6667" d="M22.667 4c0.35-0.35 0.766-0.628 1.223-0.817s0.948-0.287 1.443-0.287c0.495 0 0.986 0.098 1.443 0.287s0.873 0.467 1.223 0.817c0.35 0.35 0.628 0.766 0.817 1.224s0.287 0.948 0.287 1.443c0 0.495-0.098 0.986-0.287 1.443s-0.467 0.873-0.817 1.223l-18 18-7.333 2 2-7.333 18-18z"></path>
</symbol>
<symbol id="icon-basket" viewBox="0 0 32 32">
<path fill="none" stroke="#f6b83d" style="stroke: var(--color1, #f6b83d)" stroke-linejoin="round" stroke-linecap="round" stroke-miterlimit="4" stroke-width="2.6667" d="M4 8h24"></path>
<path fill="none" stroke="#f6b83d" style="stroke: var(--color1, #f6b83d)" stroke-linejoin="round" stroke-linecap="round" stroke-miterlimit="4" stroke-width="2.6667" d="M25.333 8v18.667c0 0.707-0.281 1.386-0.781 1.886s-1.178 0.781-1.886 0.781h-13.333c-0.707 0-1.386-0.281-1.886-0.781s-0.781-1.178-0.781-1.886v-18.667M10.667 8v-2.667c0-0.707 0.281-1.386 0.781-1.886s1.178-0.781 1.886-0.781h5.333c0.707 0 1.386 0.281 1.886 0.781s0.781 1.178 0.781 1.886v2.667"></path>
<path fill="none" stroke="#f6b83d" style="stroke: var(--color1, #f6b83d)" stroke-linejoin="round" stroke-linecap="round" stroke-miterlimit="4" stroke-width="2.6667" d="M13.333 14.667v8"></path>
<path fill="none" stroke="#f6b83d" style="stroke: var(--color1, #f6b83d)" stroke-linejoin="round" stroke-linecap="round" stroke-miterlimit="4" stroke-width="2.6667" d="M18.667 14.667v8"></path>
</symbol>
<symbol id="icon-basket-white" viewBox="0 0 32 32">
<path fill="none" stroke="#fff" style="stroke: var(--color1, #fff)" stroke-linejoin="round" stroke-linecap="round" stroke-miterlimit="4" stroke-width="2.6667" d="M4 8h24"></path>
<path fill="none" stroke="#fff" style="stroke: var(--color1, #fff)" stroke-linejoin="round" stroke-linecap="round" stroke-miterlimit="4" stroke-width="2.6667" d="M25.333 8v18.667c0 0.707-0.281 1.386-0.781 1.886s-1.178 0.781-1.886 0.781h-13.333c-0.707 0-1.386-0.281-1.886-0.781s-0.781-1.178-0.781-1.886v-18.667M10.667 8v-2.667c0-0.707 0.281-1.386 0.781-1.886s1.178-0.781 1.886-0.781h5.333c0.707 0 1.386 0.281 1.886 0.781s0.781 1.178 0.781 1.886v2.667"></path>
<path fill="none" stroke="#fff" style="stroke: var(--color1, #fff)" stroke-linejoin="round" stroke-linecap="round" stroke-miterlimit="4" stroke-width="2.6667" d="M13.333 14.667v8"></path>
<path fill="none" stroke="#fff" style="stroke: var(--color1, #fff)" stroke-linejoin="round" stroke-linecap="round" stroke-miterlimit="4" stroke-width="2.6667" d="M18.667 14.667v8"></path>
</symbol>
<symbol id="icon-heart" viewBox="0 0 32 32">
<path fill="none" stroke="#f6b83d" style="stroke: var(--color1, #f6b83d)" stroke-linejoin="round" stroke-linecap="round" stroke-miterlimit="4" stroke-width="2.6667" d="M27.788 6.147c-0.681-0.681-1.49-1.222-2.38-1.591s-1.844-0.559-2.807-0.559c-0.963 0-1.917 0.19-2.807 0.559s-1.699 0.909-2.38 1.591l-1.413 1.413-1.413-1.413c-1.376-1.376-3.241-2.148-5.187-2.148s-3.811 0.773-5.187 2.148c-1.376 1.376-2.148 3.241-2.148 5.187s0.773 3.811 2.148 5.187l11.787 11.787 11.787-11.787c0.681-0.681 1.222-1.49 1.591-2.38s0.558-1.844 0.558-2.807-0.19-1.917-0.558-2.807c-0.369-0.89-0.909-1.699-1.591-2.38z"></path>
</symbol>
<symbol id="icon-arrow-left" viewBox="0 0 7 12">
<path d="M4.16613 6.59168C4.24424 6.51421 4.30623 6.42205 4.34854 6.3205C4.39085 6.21895 4.41263 6.11003 4.41263 6.00002C4.41263 5.89001 4.39085 5.78108 4.34854 5.67953C4.30623 5.57798 4.24424 5.48582 4.16613 5.40835L0.341132 1.59168C0.263025 1.51421 0.201029 1.42204 0.158722 1.32049C0.116414 1.21894 0.0946331 1.11002 0.0946331 1.00001C0.0946331 0.89 0.116414 0.781079 0.158722 0.679529C0.201029 0.57798 0.263025 0.485812 0.341132 0.408343C0.497267 0.253134 0.708477 0.166016 0.928632 0.166016C1.14879 0.166016 1.36 0.253134 1.51613 0.408343L5.34113 4.23335C5.8093 4.7021 6.07227 5.33751 6.07227 6.00002C6.07227 6.66252 5.8093 7.29793 5.34113 7.76668L1.51613 11.5917C1.36091 11.7456 1.15142 11.8324 0.932799 11.8334C0.823126 11.834 0.714407 11.813 0.612876 11.7715C0.511344 11.73 0.418998 11.6689 0.341132 11.5917C0.263025 11.5142 0.201029 11.4221 0.158722 11.3205C0.116414 11.219 0.0946331 11.11 0.0946331 11C0.0946331 10.89 0.116414 10.7811 0.158722 10.6795C0.201029 10.578 0.263025 10.4858 0.341132 10.4084L4.16613 6.59168Z"/>
</symbol>
<symbol id="icon-x" viewBox="0 0 32 32">
<path fill="none" stroke="#fff" style="stroke: var(--color1, #fff)" stroke-linejoin="round" stroke-linecap="round" stroke-miterlimit="4" stroke-width="3.5556" d="M24 8l-16 16"></path>
<path fill="none" stroke="#fff" style="stroke: var(--color1, #fff)" stroke-linejoin="round" stroke-linecap="round" stroke-miterlimit="4" stroke-width="3.5556" d="M8 8l16 16"></path>
</symbol>
<symbol id="icon-user-white" viewBox="0 0 32 32">
<path fill="#fff" style="fill: var(--color1, #fff); stroke: var(--color1, #fff)" stroke="#fff" stroke-linejoin="round" stroke-linecap="round" stroke-miterlimit="4" stroke-width="3.5556" d="M16.001 20c-4.227 0-7.986 2.041-10.379 5.208-0.515 0.682-0.773 1.022-0.764 1.483 0.007 0.356 0.23 0.805 0.51 1.025 0.362 0.284 0.865 0.284 1.869 0.284h17.527c1.004 0 1.507 0 1.869-0.284 0.28-0.22 0.503-0.669 0.51-1.025 0.009-0.461-0.249-0.801-0.764-1.483-2.393-3.167-6.152-5.208-10.379-5.208z"></path>
<path fill="#fff" style="fill: var(--color1, #fff); stroke: var(--color1, #fff)" stroke="#fff" stroke-linejoin="round" stroke-linecap="round" stroke-miterlimit="4" stroke-width="3.5556" d="M16 16c3.314 0 6-2.686 6-6s-2.686-6-6-6c-3.314 0-6 2.686-6 6s2.686 6 6 6z"></path>
</symbol>
<symbol id="icon-upload-cloud" viewBox="0 0 32 32">
<path fill="none" stroke="#f6b83d" style="stroke: var(--color1, #f6b83d)" stroke-linejoin="round" stroke-linecap="round" stroke-miterlimit="4" stroke-width="2.3111" d="M16 16v12"></path>
<path fill="none" stroke="#f6b83d" style="stroke: var(--color1, #f6b83d)" stroke-linejoin="round" stroke-linecap="round" stroke-miterlimit="4" stroke-width="2.3111" d="M27.187 24.52c1.3-0.709 2.328-1.831 2.92-3.188s0.715-2.874 0.35-4.309-1.198-2.708-2.367-3.618c-1.169-0.909-2.608-1.404-4.089-1.405h-1.68c-0.404-1.561-1.156-3.010-2.2-4.239s-2.353-2.204-3.829-2.854-3.079-0.956-4.691-0.897c-1.611 0.059-3.188 0.483-4.612 1.24s-2.658 1.826-3.609 3.128c-0.951 1.302-1.595 2.803-1.882 4.389s-0.212 3.217 0.222 4.77c0.433 1.553 1.213 2.988 2.281 4.196"></path>
<path fill="none" stroke="#f6b83d" style="stroke: var(--color1, #f6b83d)" stroke-linejoin="round" stroke-linecap="round" stroke-miterlimit="4" stroke-width="2.3111" d="M21.333 21.333l-5.333-5.333-5.333 5.333"></path>
</symbol>
<symbol id="icon-icons8_cat-footprint" viewBox="0 0 32 32">
<path fill="#f6b83d" style="fill: var(--color1, #f6b83d)" d="M12.5 5c-1.070 0-2.002 0.608-2.594 1.438s-0.906 1.902-0.906 3.062c0 1.16 0.314 2.233 0.906 3.063s1.524 1.437 2.594 1.437c1.070 0 2.002-0.608 2.594-1.438s0.906-1.902 0.906-3.062c0-1.16-0.314-2.233-0.906-3.063s-1.524-1.437-2.594-1.437zM16 9.5c0 1.16 0.314 2.233 0.906 3.063s1.525 1.437 2.594 1.437c1.070 0 2.002-0.608 2.594-1.438s0.906-1.902 0.906-3.062c0-1.16-0.314-2.233-0.906-3.063s-1.524-1.437-2.594-1.437c-1.070 0-2.002 0.608-2.594 1.438s-0.906 1.902-0.906 3.062zM12.5 7c0.312 0 0.656 0.156 0.97 0.594 0.31 0.437 0.53 1.133 0.53 1.906s-0.22 1.47-0.53 1.906c-0.314 0.438-0.658 0.594-0.97 0.594s-0.656-0.156-0.97-0.594c-0.31-0.437-0.53-1.133-0.53-1.906s0.22-1.47 0.53-1.906c0.314-0.438 0.658-0.594 0.97-0.594zM19.5 7c0.312 0 0.656 0.156 0.97 0.594 0.31 0.437 0.53 1.133 0.53 1.906s-0.22 1.47-0.53 1.906c-0.314 0.438-0.658 0.594-0.97 0.594s-0.656-0.156-0.97-0.594c-0.31-0.437-0.53-1.133-0.53-1.906s0.22-1.47 0.53-1.906c0.314-0.438 0.658-0.594 0.97-0.594zM7.5 12c-1.070 0-2.002 0.608-2.594 1.438s-0.906 1.902-0.906 3.062c0 1.16 0.314 2.233 0.906 3.063s1.524 1.437 2.594 1.437c1.070 0 2.002-0.608 2.594-1.438s0.906-1.902 0.906-3.062c0-1.16-0.314-2.233-0.906-3.063s-1.524-1.437-2.594-1.437zM24.5 12c-1.070 0-2.002 0.608-2.594 1.438s-0.906 1.902-0.906 3.062c0 1.16 0.314 2.233 0.906 3.063s1.524 1.437 2.594 1.437c1.070 0 2.002-0.608 2.594-1.438s0.906-1.902 0.906-3.062c0-1.16-0.314-2.233-0.906-3.063s-1.524-1.437-2.594-1.437zM7.5 14c0.312 0 0.656 0.156 0.97 0.594 0.31 0.437 0.53 1.133 0.53 1.906s-0.22 1.47-0.53 1.906c-0.314 0.438-0.658 0.594-0.97 0.594s-0.656-0.156-0.97-0.594c-0.31-0.436-0.53-1.133-0.53-1.906s0.22-1.47 0.53-1.906c0.314-0.438 0.658-0.594 0.97-0.594zM24.5 14c0.312 0 0.656 0.156 0.97 0.594 0.31 0.437 0.53 1.133 0.53 1.906s-0.22 1.47-0.53 1.906c-0.314 0.438-0.658 0.594-0.97 0.594s-0.656-0.156-0.97-0.594c-0.31-0.437-0.53-1.133-0.53-1.906s0.22-1.47 0.53-1.906c0.314-0.438 0.658-0.594 0.97-0.594zM16 16c-1.333 0-2.263 0.865-2.72 1.625-0.454 0.76-0.734 1.392-1 1.656-0.153 0.157-1.118 0.52-2.124 1.033-0.503 0.257-1.010 0.6-1.437 1.125-0.43 0.525-0.72 1.25-0.72 2.063 0 1.92 1.58 3.5 3.5 3.5 0.866 0 1.77-0.28 2.655-0.53 0.889-0.256 1.846-0.472 1.846-0.472s0.957 0.216 1.844 0.47c0.886 0.25 1.79 0.53 2.656 0.53 1.92 0 3.5-1.58 3.5-3.5 0-0.794-0.293-1.52-0.72-2.030-0.425-0.513-0.937-0.83-1.436-1.095-1-0.53-1.983-0.95-2.125-1.094-0.24-0.237-0.51-0.89-0.97-1.654-0.459-0.767-1.409-1.627-2.749-1.627zM16 18c0.66 0 0.733 0.16 1.030 0.656 0.3 0.495 0.524 1.336 1.25 2.063 0.825 0.82 1.867 1 2.626 1.404 0.38 0.202 0.67 0.417 0.844 0.625 0.173 0.207 0.25 0.396 0.25 0.75 0 0.84-0.66 1.5-1.5 1.5-0.29 0-1.224-0.22-2.094-0.47-0.87-0.247-1.59-0.53-2.406-0.53s-1.536 0.283-2.406 0.53c-0.87 0.25-1.804 0.47-2.094 0.47-0.84 0-1.5-0.66-1.5-1.5 0-0.403 0.084-0.61 0.25-0.814 0.166-0.203 0.472-0.404 0.844-0.593 0.744-0.38 1.78-0.53 2.625-1.375 0.733-0.737 0.953-1.605 1.25-2.095 0.292-0.49 0.362-0.625 1.030-0.625l0.001 0.004z"></path>
</symbol>
<symbol id="icon-heart-wite" viewBox="0 0 34 32">
<path fill="none" stroke="#fff" style="stroke: var(--color2, #fff)" stroke-linejoin="round" stroke-linecap="round" stroke-miterlimit="4" stroke-width="2.6667" d="M28.676 6.147c-0.681-0.681-1.49-1.222-2.38-1.591s-1.844-0.559-2.807-0.559c-0.963 0-1.917 0.19-2.807 0.559s-1.698 0.909-2.379 1.591l-1.413 1.413-1.413-1.413c-1.376-1.376-3.241-2.148-5.187-2.148s-3.811 0.773-5.187 2.148c-1.376 1.376-2.148 3.241-2.148 5.187s0.773 3.811 2.148 5.187l11.787 11.787 11.787-11.787c0.681-0.681 1.222-1.49 1.591-2.38s0.558-1.844 0.558-2.807-0.19-1.917-0.558-2.807c-0.369-0.89-0.909-1.699-1.591-2.38z"></path>
</symbol>
</defs>
</svg>
